<svg width="500" height="500" viewBox="0 0 500 500" fill="none" xmlns="http://www.w3.org/2000/svg">
<g clip-path="url(#clip0_1_2)">
<rect width="500" height="500" fill="black"/>
<path d="M353.341 182.273L314.795 193.182C312.371 186.758 308.795 180.515 304.068 174.455C299.462 168.273 293.159 163.182 285.159 159.182C277.159 155.182 266.917 153.182 254.432 153.182C237.341 153.182 223.098 157.121 211.705 165C200.432 172.758 194.795 182.636 194.795 194.636C194.795 205.303 198.674 213.727 206.432 219.909C214.189 226.091 226.311 231.242 242.795 235.364L284.25 245.545C309.22 251.606 327.826 260.879 340.068 273.364C352.311 285.727 358.432 301.667 358.432 321.182C358.432 337.182 353.826 351.485 344.614 364.091C335.523 376.697 322.795 386.636 306.432 393.909C290.068 401.182 271.038 404.818 249.341 404.818C220.856 404.818 197.28 398.636 178.614 386.273C159.947 373.909 148.129 355.848 143.159 332.091L183.886 321.909C187.765 336.939 195.098 348.212 205.886 355.727C216.795 363.242 231.038 367 248.614 367C268.614 367 284.492 362.758 296.25 354.273C308.129 345.667 314.068 335.364 314.068 323.364C314.068 313.667 310.674 305.545 303.886 299C297.098 292.333 286.674 287.364 272.614 284.091L226.068 273.182C200.492 267.121 181.705 257.727 169.705 245C157.826 232.152 151.886 216.091 151.886 196.818C151.886 181.061 156.311 167.121 165.159 155C174.129 142.879 186.311 133.364 201.705 126.455C217.22 119.545 234.795 116.091 254.432 116.091C282.068 116.091 303.765 122.152 319.523 134.273C335.402 146.394 346.674 162.394 353.341 182.273Z" fill="white"/>
</g>
<rect x="10" y="10" width="480" height="480" stroke="white" stroke-width="20"/>
<defs>
<clipPath id="clip0_1_2">
<rect width="500" height="500" fill="white"/>
</clipPath>
</defs>
</svg>
